<svg xmlns="http://www.w3.org/2000/svg" xmlns:xlink="http://www.w3.org/1999/xlink" width="500" zoomAndPan="magnify" viewBox="0 0 375 374.999991" height="500" preserveAspectRatio="xMidYMid meet" version="1.0"><defs><clipPath id="5a84e592e0"><path d="M 156 73.386719 L 203 73.386719 L 203 114 L 156 114 Z M 156 73.386719 " clip-rule="nonzero"/></clipPath><clipPath id="4401d2341b"><path d="M 86 128 L 358.039062 128 L 358.039062 254 L 86 254 Z M 86 128 " clip-rule="nonzero"/></clipPath></defs><path fill="#393536" d="M 61.128906 217.023438 C 61.128906 221.46875 57.523438 225.070312 53.078125 225.070312 C 48.632812 225.070312 45.03125 221.46875 45.03125 217.023438 C 45.03125 212.578125 48.632812 208.976562 53.078125 208.976562 C 57.523438 208.976562 61.128906 212.578125 61.128906 217.023438 " fill-opacity="1" fill-rule="nonzero"/><path fill="#393536" d="M 64.53125 96.695312 C 55.816406 96.222656 46.863281 98.542969 39.300781 103.230469 C 31.3125 108.179688 25.441406 115.488281 22.765625 123.808594 C 16.785156 142.378906 26.761719 156.984375 38.4375 169.996094 C 40.714844 172.53125 43.117188 175.046875 45.4375 177.476562 C 53.976562 186.417969 64.113281 194.222656 68.777344 204.613281 C 77.167969 223.316406 54.167969 221.851562 54.167969 221.851562 L 53.078125 225.070312 C 53.316406 225.195312 53.554688 225.308594 53.789062 225.414062 C 66.476562 231.304688 80.542969 220.152344 78 206.398438 C 77.71875 204.871094 77.304688 203.328125 76.765625 201.785156 C 72.179688 188.65625 62.859375 178.898438 53.84375 169.453125 C 51.476562 166.980469 49.246094 164.640625 47.089844 162.234375 C 36.269531 150.179688 29.875 139.640625 33.828125 127.367188 C 37.558594 115.765625 50.488281 107.566406 63.898438 108.300781 C 79.003906 109.125 94.40625 120.363281 109.671875 141.714844 L 119.125 134.953125 C 101.457031 110.25 83.601562 97.734375 64.53125 96.695312 " fill-opacity="1" fill-rule="nonzero"/><path fill="#393536" d="M 176.917969 297.992188 C 172.371094 298.832031 168.257812 299.1875 164.554688 299.1875 C 154.257812 299.1875 147.136719 296.441406 142.609375 293.710938 C 135.796875 289.605469 133.164062 284.671875 133.054688 284.46875 C 132.566406 283.53125 132.929688 282.371094 133.863281 281.882812 C 134.796875 281.398438 135.949219 281.757812 136.441406 282.6875 C 136.488281 282.773438 138.832031 287.039062 144.796875 290.5625 C 152.789062 295.285156 163.65625 296.550781 176.222656 294.234375 C 177.265625 294.046875 178.261719 294.726562 178.449219 295.765625 C 178.644531 296.804688 177.957031 297.800781 176.917969 297.992188 Z M 208.289062 261.082031 C 206.152344 259.425781 204.402344 257.410156 202.957031 255.164062 C 198.082031 256.394531 193.328125 257.164062 188.761719 257.375 C 186.667969 257.476562 184.554688 257.527344 182.492188 257.527344 C 173.867188 257.527344 165.558594 256.691406 157.589844 255.039062 C 156.125 257.328125 154.347656 259.394531 152.171875 261.082031 C 144.804688 266.800781 122.21875 278.847656 125.785156 287.460938 C 136.203125 312.605469 224.257812 312.605469 234.675781 287.460938 C 238.242188 278.847656 215.652344 266.800781 208.289062 261.082031 " fill-opacity="1" fill-rule="nonzero"/><g clip-path="url(#5a84e592e0)"><path fill="#393536" d="M 161.714844 102.222656 C 164.769531 105.273438 167.027344 108.972656 168.371094 112.992188 C 170.574219 112.835938 172.796875 112.757812 175.035156 112.757812 C 180.1875 112.757812 185.308594 113.175781 190.335938 113.886719 C 191.632812 109.523438 194.003906 105.5 197.285156 102.222656 L 201.214844 98.296875 C 202.328125 97.179688 202.328125 95.371094 201.214844 94.253906 L 181.519531 74.566406 C 180.40625 73.449219 178.59375 73.449219 177.476562 74.566406 L 157.789062 94.253906 C 156.671875 95.371094 156.671875 97.179688 157.789062 98.296875 L 161.714844 102.222656 " fill-opacity="1" fill-rule="nonzero"/></g><path fill="#393536" d="M 189.894531 148.855469 C 210.023438 148.855469 231.882812 145.441406 254.945312 138.707031 C 254.945312 138.707031 250.699219 137.167969 249.664062 136.777344 C 247.621094 136.015625 245.59375 135.234375 243.5625 134.449219 C 239.753906 132.960938 235.960938 131.433594 232.15625 129.925781 C 209.554688 120.953125 185.410156 113.785156 160.75 117.75 C 146.871094 119.984375 134.144531 124.5625 122.214844 131.96875 C 133.0625 138.683594 155.21875 148.859375 189.894531 148.855469 " fill-opacity="1" fill-rule="nonzero"/><g clip-path="url(#4401d2341b)"><path fill="#393536" d="M 111.183594 152.074219 C 111.054688 152.1875 104.0625 158.464844 100.160156 168.710938 C 94.964844 182.347656 97.429688 196.300781 107.484375 210.195312 C 108.15625 211.128906 107.949219 212.429688 107.019531 213.101562 C 106.648438 213.371094 106.222656 213.5 105.796875 213.5 C 105.152344 213.5 104.515625 213.199219 104.109375 212.636719 C 90.4375 193.757812 92.335938 177.425781 96.332031 167.058594 C 100.644531 155.867188 108.117188 149.21875 108.433594 148.945312 C 109.296875 148.183594 110.613281 148.273438 111.371094 149.136719 C 112.132812 150 112.046875 151.3125 111.183594 152.074219 Z M 337.753906 128.601562 C 317.136719 137.582031 290.320312 150.644531 261.199219 140.867188 C 181.398438 165.675781 136.082031 145.636719 118.617188 134.273438 C 82.042969 158.503906 81.488281 184.277344 91.710938 204.355469 C 99.660156 219.964844 130.671875 256.207031 188.582031 253.507812 C 245.070312 250.875 341.628906 155.582031 358.023438 128.601562 L 337.753906 128.601562 " fill-opacity="1" fill-rule="nonzero"/></g></svg>